# xmcd CD database file
#
# Track frame offsets:
#	150
#	13317
#	25380
#	39145
#	56525
#	68550
#	81927
#	94650
#	108055
#	119787
#	131510
#	144017
#	155425
#	169477
#	181172
#	194450
#	204377
#	217295
#	230897
#	243840
#
# Disc length: 3424 seconds
#
# Revision: 2
# Processed by: cddbd v1.5.2PL0 Copyright (c) Steve Scherf et al.
# Submitted via: CDex 1.70beta2
#
DISCID=190d5e14
DTITLE=Howlin' Wolf - Moanin' At Midnight
DYEAR=2006
DGENRE=Blues
TTITLE0=Moanin' At Midnight
TTITLE1=How Many More Years
TTITLE2=Riding In The Moonlight
TTITLE3=Crying At Daybreak
TTITLE4=Passing By Blues
TTITLE5=My Baby Stole Off
TTITLE6=I Want Your Picture
TTITLE7=The Wolf Is At Your Door
TTITLE8=Howling Wolf Boogie
TTITLE9=Getting Old And Grey
TTITLE10=Mr Highway Man
TTITLE11=Saddle My Pony
TTITLE12=Worried All The Time
TTITLE13=Oh! Red
TTITLE14=My Last Affair
TTITLE15=All Night Boogie
TTITLE16=No Place To Go
TTITLE17=Rockin' Daddy
TTITLE18=Baby How Long
TTITLE19=Evil Is Going On
EXTD=YEAR: 2006
EXTT0=
EXTT1=
EXTT2=
EXTT3=
EXTT4=
EXTT5=
EXTT6=
EXTT7=
EXTT8=
EXTT9=
EXTT10=
EXTT11=
EXTT12=
EXTT13=
EXTT14=
EXTT15=
EXTT16=
EXTT17=
EXTT18=
EXTT19=
PLAYORDER=
